<svg width="69" height="69" fill="none" xmlns="http://www.w3.org/2000/svg"><path fill-rule="evenodd" clip-rule="evenodd" d="M42 4a4 4 0 00-4-4h-7a4 4 0 00-4 4v23H4a4 4 0 00-4 4v7a4 4 0 004 4h23v23a4 4 0 004 4h7a4 4 0 004-4V42h23a4 4 0 004-4v-7a4 4 0 00-4-4H42V4z" fill="url(#paint0_linear_344_4912)"/><defs><linearGradient id="paint0_linear_344_4912" x1="34.5" y1="0" x2="34.5" y2="69" gradientUnits="userSpaceOnUse"><stop stop-color="#A7F4AA"/><stop offset="1" stop-color="#51F5FF"/></linearGradient></defs></svg>