<svg width="118" height="152" fill="none" xmlns="http://www.w3.org/2000/svg"><path d="M108.406 5.145a4 4 0 117.91-1.194l-7.91 1.194zM32.328 150.828a4 4 0 01-5.657 0L1.215 125.372a3.999 3.999 0 010-5.656 3.998 3.998 0 015.657 0L29.5 142.343l22.627-22.627a4 4 0 015.657 5.657l-25.456 25.455zM116.316 3.951c2.8 18.54-1.206 30.058-9.603 38.352-4.032 3.984-8.908 7.053-13.986 9.81-2.546 1.382-5.2 2.716-7.859 4.049-2.676 1.341-5.364 2.684-8.067 4.124C66.037 66.02 55.39 73.112 47.33 85.941 39.25 98.801 33.5 117.867 33.5 148h-8c0-31.117 5.937-51.8 15.056-66.315 9.138-14.544 21.2-22.449 32.483-28.46 2.808-1.495 5.59-2.885 8.245-4.215 2.673-1.34 5.212-2.617 7.625-3.927 4.841-2.63 8.945-5.273 12.182-8.471 6.142-6.067 9.834-14.782 7.315-31.467l7.91-1.194z" fill="#C4C4C4"/></svg>