<svg width="911" height="203" fill="none" xmlns="http://www.w3.org/2000/svg"><path d="M155.487 19.267c72.46-31.097 177.275-19.652 223.48 0 46.206 8.422 132.528 20.213 198.983 0C661.02-6 845.896 38.452 879.424 63.718c33.528 25.267 43.989 55.715 13.464 76.446-30.525 20.732-113.094 38.224-138.616 38.224-20.417 0-27.523 23.97-169.641 23.97H346.932c-50.542 2.592-177.348-1.295-280.234-37.575C-36.187 128.503 2.478 75.811 34.672 54c61.05-36.28 48.354-3.636 120.815-34.733z" fill="url(#paint0_linear_389_385)"/><defs><linearGradient id="paint0_linear_389_385" x1="85.714" y1="55.943" x2="880.83" y2="97.378" gradientUnits="userSpaceOnUse"><stop stop-color="#FFDAF2"/><stop offset="1" stop-color="#FFF8B8"/></linearGradient></defs></svg>